<svg width="100" height="100" viewBox="0 0 100 100" fill="none" xmlns="http://www.w3.org/2000/svg">
<rect width="100" height="100" rx="20" fill="#FF847C"/>
<path d="M67.1356 85.5888H62.4667C62.1198 85.5888 61.8146 85.3589 61.7187 85.0255L51.3201 48.8431C51.2176 48.4869 51.3808 48.1079 51.7101 47.9373C52.0388 47.7666 52.4425 47.8519 52.6749 48.1412C54.3111 50.181 56.7456 51.3508 59.3541 51.3508C61.4625 51.3508 63.4888 50.576 65.0601 49.1694C65.3556 48.9049 65.8028 48.9049 66.0983 49.1694C67.6696 50.576 69.6959 51.3508 71.8043 51.3508C74.3176 51.3508 76.6949 50.2499 78.3268 48.3307C78.568 48.0474 78.9758 47.9743 79.2999 48.1558C79.6244 48.3377 79.7749 48.7236 79.6593 49.077L67.8751 85.0527C67.7702 85.3725 67.4717 85.5888 67.1356 85.5888ZM63.0525 84.0325H66.5713L77.2984 51.2841C75.6785 52.3336 73.7768 52.9071 71.8042 52.9071C69.5386 52.9071 67.3532 52.1504 65.5791 50.7634C63.8051 52.1504 61.6196 52.9071 59.3541 52.9071C57.2607 52.9071 55.2621 52.2698 53.5897 51.1062L63.0525 84.0325Z" fill="white"/>
<path d="M71.8042 52.9071C69.5386 52.9071 67.3532 52.1504 65.5791 50.7634C63.8051 52.1504 61.6196 52.9071 59.3541 52.9071C56.2711 52.9071 53.394 51.5249 51.4609 49.1152C50.0276 47.3282 49.2382 45.0824 49.2382 42.7912C49.2382 38.5182 51.9387 34.7205 55.9002 33.2827C55.6098 32.3306 55.4634 31.3443 55.4634 30.3409C55.4634 24.763 60.0014 20.2252 65.5791 20.2252C71.1569 20.2252 75.6948 24.763 75.6948 30.3409C75.6948 31.3443 75.5481 32.3306 75.258 33.2827C79.2195 34.7205 81.92 38.5182 81.92 42.7912C81.92 45.1873 81.0651 47.5128 79.5124 49.3389C77.5842 51.6067 74.7746 52.9071 71.8042 52.9071ZM65.5791 48.9711C65.7647 48.9711 65.9504 49.0372 66.0981 49.1696C67.6694 50.5762 69.6958 51.3509 71.8042 51.3509C74.3174 51.3509 76.6948 50.2501 78.3267 48.3309C79.6404 46.7858 80.3637 44.8184 80.3637 42.7912C80.3637 38.9387 77.7696 35.5428 74.0552 34.5329C73.8412 34.4747 73.6624 34.3281 73.5634 34.1302C73.4642 33.932 73.4543 33.7009 73.536 33.495C73.9359 32.4872 74.1387 31.4262 74.1387 30.3411C74.1387 25.6215 70.2989 21.7817 65.5791 21.7817C60.8593 21.7817 57.0195 25.6215 57.0195 30.3411C57.0195 31.4262 57.2223 32.4874 57.6222 33.495C57.7039 33.7009 57.694 33.932 57.5948 34.1302C57.4955 34.3283 57.3168 34.4747 57.103 34.5329C53.3886 35.5428 50.7945 38.9387 50.7945 42.7912C50.7945 44.7575 51.4447 46.6076 52.6749 48.1413C54.3111 50.181 56.7456 51.3509 59.3541 51.3509C61.4625 51.3509 63.4888 50.5762 65.0601 49.1696C65.2079 49.0373 65.3935 48.9711 65.5791 48.9711Z" fill="white"/>
<path d="M70.248 59.1321H56.2415C55.8117 59.1321 55.4634 58.7838 55.4634 58.3539C55.4634 57.924 55.8116 57.5757 56.2415 57.5757H70.248C70.6777 57.5757 71.0261 57.924 71.0261 58.3539C71.0261 58.7838 70.6777 59.1321 70.248 59.1321Z" fill="white"/>
<path d="M68.6916 63.0228H65.5791V66.1352H68.6916V63.0228Z" fill="white"/>
<path d="M64.0228 63.0228H60.9104V66.1352H64.0228V63.0228Z" fill="white"/>
<path d="M40.6788 63.0228H37.5663V66.1352H40.6788V63.0228Z" fill="white"/>
<path d="M34.4535 67.6916H31.3411V70.804H34.4535V67.6916Z" fill="white"/>
<path d="M28.2285 61.4665H25.1161V64.5789H28.2285V61.4665Z" fill="white"/>
<path d="M40.6788 70.8041H37.5663V73.9168H40.6788V70.8041Z" fill="white"/>
<path d="M31.3411 72.3605H28.2285V75.4729H31.3411V72.3605Z" fill="white"/>
<path d="M26.6722 69.2479H23.5597V72.3603H26.6722V69.2479Z" fill="white"/>
<path d="M45.3475 85.5888H20.4473C20.0176 85.5888 19.6691 85.2404 19.6691 84.8106V33.4537C19.6691 33.024 20.0174 32.6755 20.4473 32.6755H45.3477C45.7774 32.6755 46.1259 33.0238 46.1259 33.4537V84.8107C46.1257 85.2404 45.7774 85.5888 45.3475 85.5888ZM21.2254 84.0325H44.5694V34.2318H21.2254V84.0325Z" fill="white"/>
<path d="M45.3475 85.5888H20.4473C20.0176 85.5888 19.6691 85.2404 19.6691 84.8106V58.3539C19.6691 57.9242 20.0174 57.5757 20.4473 57.5757H45.3477C45.7774 57.5757 46.1259 57.924 46.1259 58.3539V84.8106C46.1257 85.2404 45.7774 85.5888 45.3475 85.5888ZM21.2254 84.0325H44.5694V59.1321H21.2254V84.0325Z" fill="white"/>
<path d="M45.3475 85.5888H20.4473C20.0176 85.5888 19.6691 85.2404 19.6691 84.8106V78.5853C19.6691 78.1556 20.0174 77.8073 20.4473 77.8073H45.3477C45.7774 77.8073 46.1259 78.1555 46.1259 78.5853V84.8106C46.1257 85.2404 45.7774 85.5888 45.3475 85.5888ZM21.2254 84.0325H44.5694V79.3636H21.2254V84.0325Z" fill="white"/>
<path d="M34.4527 65.3573C34.0772 65.3573 33.7466 65.0848 33.6854 64.702L27.5318 26.2417L15.5051 21.7321C15.1028 21.5811 14.8989 21.1326 15.0497 20.7302C15.2008 20.328 15.6493 20.1238 16.0516 20.2748L28.5017 24.9435C28.7636 25.0417 28.9527 25.2729 28.9968 25.5492L35.2219 64.4561C35.2899 64.8804 35.0009 65.2794 34.5766 65.3473C34.5349 65.3542 34.4936 65.3573 34.4527 65.3573Z" fill="white"/>
<path d="M61.9655 42.1635C61.1189 42.1635 60.2214 42.1143 59.2682 42.0083C58.841 41.9609 58.5332 41.5762 58.5806 41.1491C58.628 40.722 59.0133 40.4138 59.4399 40.4616C67.7682 41.3866 71.4818 37.8123 73.1309 34.6505C73.1323 34.6478 73.1337 34.6453 73.135 34.6429C73.3262 34.2753 73.4993 33.8928 73.6492 33.5062C73.8045 33.1055 74.2556 32.9067 74.6559 33.0619C75.0568 33.2172 75.2557 33.668 75.1002 34.0687C74.9286 34.5113 74.7305 34.9489 74.5111 35.3694C74.5096 35.3722 74.5083 35.3748 74.5068 35.3775C73.1215 38.0296 69.7157 42.1632 61.9655 42.1635Z" fill="white"/>
<path d="M84.2544 85.5888H53.1289C52.6991 85.5888 52.3506 85.2404 52.3506 84.8105C52.3506 84.3807 52.699 84.0323 53.1289 84.0323H84.2544C84.6841 84.0323 85.0327 84.3807 85.0327 84.8105C85.0327 85.2404 84.6841 85.5888 84.2544 85.5888Z" fill="white"/>
<path d="M45.979 28.6792C44.8815 28.6792 43.6927 28.5707 42.4339 28.4559C41.3036 28.3528 40.1349 28.2462 38.896 28.2022C38.4878 28.1877 38.1604 27.8601 38.1459 27.452C38.1021 26.2149 37.9959 25.0478 37.8932 23.9191C37.5714 20.382 37.2934 17.3272 39.4191 15.2017C40.194 14.4268 41.2412 14 42.3681 14C43.5753 14 44.7718 14.5043 45.6512 15.3835C46.9359 16.6682 47.1853 17.9562 46.9517 19.3969C47.2744 19.3447 47.5728 19.3193 47.8566 19.3193C49.0371 19.3193 50.0248 19.7571 50.9646 20.6969C52.7347 22.467 52.8177 25.264 51.1496 26.9322C49.6015 28.4804 47.5737 28.6791 45.98 28.6791C45.9796 28.6792 45.9793 28.6792 45.979 28.6792ZM39.6691 26.679C40.6822 26.7334 41.6416 26.8208 42.5752 26.906C43.7981 27.0175 44.9532 27.1229 45.9798 27.1228C47.9271 27.1228 49.1441 26.7367 50.049 25.8318C51.1102 24.7706 51.0272 22.9606 49.864 21.7975C49.2179 21.1515 48.6176 20.8758 47.8565 20.8758C47.391 20.8758 46.841 20.9761 46.1261 21.1917C45.8517 21.2744 45.5539 21.1998 45.3513 20.997C45.1487 20.7944 45.0738 20.4966 45.1564 20.2221C45.7057 18.4001 45.5585 17.4918 44.5506 16.4841C43.961 15.8944 43.1655 15.5563 42.3681 15.5563C41.6569 15.5563 41.0004 15.8211 40.5195 16.3023C38.9095 17.9123 39.145 20.5009 39.4431 23.7781C39.5278 24.7103 39.6151 25.6679 39.6691 26.679Z" fill="white"/>
</svg>
