<svg width="429" height="69.7578655439291" viewBox="0 0 369.65517241379314 60.10805551249256" class="looka-1j8o68f">
	<defs id="SvgjsDefs1907">
	</defs>
	<g id="SvgjsG1908" featurekey="symbolFeature-0" transform="matrix(0.6616815753248575,0,0,0.6616815753248575,-3.2087368896642947,-2.89154840844618)" fill="#f9f8e6">
		<g xmlns="http://www.w3.org/2000/svg" fill="#f9f8e6" fill-rule="evenodd">
			<path d="M54.3530685,49.2894216 C57.3747489,46.1765544 60.6585457,42.8464131 64.2315652,39.2819746 C64.2367122,39.2768526 64.2418602,39.2717171 64.2470093,39.266568 C67.8865295,35.6270478 72.0459812,41.8662254 79.844953,34.0672535 C85.7016177,28.2105887 95.7028624,15.0897553 95.9628282,14.8297896 C96.2227939,14.5698238 95.8328453,14.1798752 95.5728796,14.439841 C95.3129138,14.6998067 80.3648845,29.3878703 79.844953,29.9078018 C79.3250215,30.4277333 78.5451244,30.1677675 78.1551758,29.7778189 C78.2851586,29.9078018 77.7698603,29.3925035 77.89521,29.5178532 C77.5098946,29.1325378 77.2452957,28.3480074 77.7652272,27.828076 C78.2851586,27.3081445 92.9732223,11.3202522 93.233188,11.0602865 C93.4931537,10.8003208 92.9732223,10.2803893 92.7132565,10.540355 C92.4532908,10.8003208 76.4653985,26.0083159 75.9454671,26.5282473 C75.4255356,27.0481788 74.6710257,26.8136003 74.2556898,26.3982645 C74.41106,26.5536346 73.8819256,26.0245003 73.9957241,26.1382987 C73.6219599,25.7645345 73.3458098,24.968453 73.8657412,24.4485215 C74.3856727,23.9285901 89.5936678,7.94069776 89.8536335,7.68073203 C90.1135993,7.4207663 89.5936678,6.90083484 89.3337021,7.16080057 C89.0737364,7.4207663 73.0858441,22.10883 72.5659126,22.6287614 C72.0459811,23.1486929 71.2785237,22.9011669 70.8761354,22.4987785 C71.018558,22.6412012 70.4861868,22.10883 70.6161696,22.2388128 C70.226221,21.8488642 69.9662553,21.068967 70.4861868,20.5490356 C71.0061182,20.0291041 85.6941819,5.08107475 85.9541476,4.82110902 C86.2141133,4.56114329 85.7634257,4.23193376 85.564199,4.43116042 C85.3649724,4.63038709 74.125707,12.7500637 66.3267351,20.5490356 C58.5277633,28.3480074 64.7669407,32.5074591 61.1274206,36.1469793 C61.1222715,36.1521284 61.117136,36.1572764 61.1120139,36.1624233 C57.5044679,39.7786543 54.1369203,43.0986245 50.991723,46.150436 C52.1394252,47.2313451 53.2596306,48.2772131 54.3530685,49.2894216 L54.3530685,49.2894216 Z M49.1100588,54.7470602 C24.1449354,81.0206443 19.9904377,89.7623171 15.5015514,94.2512034 C13.9945036,95.758251 11.0156227,95.4284774 7.05454905,93.3394395 C4.96551118,89.3783658 4.63573749,86.3994849 6.14278519,84.8924372 C10.6385785,80.3966438 19.4002562,76.2362688 45.7683354,51.1685395 C46.9214554,52.3922796 48.0348082,53.5848274 49.1100588,54.7470602 L49.1100588,54.7470602 Z">
			</path>
			<path d="M41.1627594,38.167009 C78.119741,75.0002847 88.9712584,79.7371855 94.1538926,84.9198197 C95.6609402,86.4268675 95.3311667,89.4057484 93.2421288,93.366822 C89.2810551,95.4558599 86.3021741,95.7856336 84.7951264,94.2785859 C79.9486616,89.4321211 75.491981,79.6283411 44.8137058,48.1552301 C41.2327151,45.7982906 36.4471244,53.3811971 29.0340661,45.9681388 C21.2350942,38.169167 1.06409161,12.8699811 5.47201862,8.46205414 C7.75862528,6.17544748 9.04708752,6.04969616 21.4926907,18.4952993 C29.0421684,26.044777 36.0248199,33.0283469 41.1627594,38.167009 L41.1627594,38.167009 Z">
			</path>
		</g>
	</g>
	<g id="SvgjsG1909" featurekey="nameFeature-0" transform="matrix(1.6502687178844833,0,0,1.6502687178844833,76.69946571186881,-9.542041311630738)" fill="#f9f8e6">
		<path d="M2 40 l0 -32 l3.6 0 l4.2 20 l0.4 0 l4.2 -20 l3.6 0 l0 32 l-4 0 l0 -16 l-2.84 16 l-2.4 0 l-2.76 -16 l0 16 l-4 0 z M21.8 23.16 l0 -15.16 l4 0 l0 15.16 c0 11.56 0 13.24 2 13.24 s2 -1.68 2 -13.24 l0 -15.16 l4 0 l0 15.16 c0 12.8 0 17.24 -6 17.24 s-6 -4.44 -6 -17.24 z M37.6 40 l0 -32 l3.6 0 l5.24 19.6 l-0.04 -0.4 l0 -19.2 l4 0 l0 32 l-3.6 0 l-5.24 -17.6 l0.04 0.4 l0 17.2 l-4 0 z M54.00000000000001 23.16 c0 -11.16 0 -15.56 5.6 -15.56 c4.12 0 5.24 2.52 5.52 8.56 l-3.72 0 c-0.16 -4.36 -0.6 -5.36 -1.8 -5.36 c-1.84 0 -1.84 1.96 -1.84 12.36 c0 11.56 0 13.24 1.84 13.24 c1.32 0 1.72 -1 1.8 -6.16 l3.76 0 c-0.24 7.4 -1.24 10.16 -5.56 10.16 c-5.6 0 -5.6 -4.44 -5.6 -17.24 z M67.96000000000001 40 l0 -32 l4 0 l0 13.6 l4 0 l0 -13.6 l4 0 l0 32 l-4 0 l0 -15.2 l-4 0 l0 15.2 l-4 0 z M83.96000000000001 40 l0 -32 l3.6 0 l4.2 20 l0.4 0 l4.2 -20 l3.6 0 l0 32 l-4 0 l0 -16 l-2.84 16 l-2.4 0 l-2.76 -16 l0 16 l-4 0 z M103.96000000000001 40 l0 -32 l9.2 0 l0 3.2 l-5.2 0 l0 10.4 l4.4 0 l0 3.2 l-4.4 0 l0 11.2 l5.2 0 l0 4 l-9.2 0 z M114.36000000000001 11.600000000000001 l0 -3.6 l12 0 l0 3.6 l-4 0 l0 28.4 l-4 0 l0 -28.4 l-4 0 z M128.76 40 l0 -32 l6.48 0 c4.12 0 5.52 2.52 5.52 7.36 c0 4.36 -0.52 6.84 -1.76 8.04 l0 0.24 c1.04 0.36 1.36 2.24 1.76 6.92 l0.8 9.44 l-4 0 l-0.52 -9.44 c-0.28 -4.76 -1 -5.76 -2.2 -5.76 l-2.08 0 l0 15.2 l-4 0 z M132.76 21.6 l2.48 0 c1.4 0 1.8 -1.4 1.8 -6.24 c0 -3.16 -0.6 -4.16 -1.8 -4.16 l-2.48 0 l0 10.4 z M144.76 40 l0 -32 l4 0 l0 32 l-4 0 z M152.35999999999999 23.16 c0 -11.16 0 -15.56 5.6 -15.56 c4.12 0 5.24 2.52 5.52 8.56 l-3.72 0 c-0.16 -4.36 -0.6 -5.36 -1.8 -5.36 c-1.84 0 -1.84 1.96 -1.84 12.36 c0 11.56 0 13.24 1.84 13.24 c1.32 0 1.72 -1 1.8 -6.16 l3.76 0 c-0.24 7.4 -1.24 10.16 -5.56 10.16 c-5.6 0 -5.6 -4.44 -5.6 -17.24 z M165.51999999999998 30.240000000000002 l4.04 0 c0.08 5.16 0.48 6.16 1.92 6.16 c1.96 0 1.96 -1.64 1.96 -6 c0 -6.4 -7.92 -4.68 -7.92 -13.2 c0 -5 0 -9.6 6 -9.6 c4.44 0 5.64 2.52 5.92 8.56 l-4 0 c-0.16 -4.36 -0.64 -5.36 -1.92 -5.36 c-1.96 0 -1.96 2.16 -1.96 6.4 c0 6.2 7.96 4 7.96 13.2 c0 5.6 0 10 -6.04 10 c-4.64 0 -5.72 -2.76 -5.96 -10.16 z">
		</path>
	</g>
</svg>
